<svg version="1.1" id="Layer_1" xmlns="http://www.w3.org/2000/svg" xmlns:xlink="http://www.w3.org/1999/xlink" x="0px" y="0px"
	 width="100%" viewBox="0 0 128 128" enable-background="new 0 0 128 128" xml:space="preserve">
<path fill="#FBFCFB" opacity="1.000000" stroke="none" 
	d="
M78.000000,129.000000 
	C52.000000,129.000000 26.500000,129.000000 1.000000,129.000000 
	C1.000000,86.333336 1.000000,43.666668 1.000000,1.000000 
	C43.666668,1.000000 86.333336,1.000000 129.000000,1.000000 
	C129.000000,43.666668 129.000000,86.333336 129.000000,129.000000 
	C112.166664,129.000000 95.333336,129.000000 78.000000,129.000000 
M96.529411,121.523666 
	C96.529411,121.523666 96.617363,121.199959 96.873611,120.853302 
	C96.971954,120.549866 96.913712,120.280235 96.832054,119.120682 
	C96.767166,115.083817 96.702278,111.046944 96.834259,106.142471 
	C96.780373,103.775192 96.726494,101.407913 96.885826,98.164299 
	C96.885826,95.730309 96.885826,93.296326 96.885826,90.765381 
	C93.910339,90.765381 91.511742,90.765381 89.062073,90.765381 
	C89.062073,93.735893 89.062073,96.376671 88.916878,99.906136 
	C88.975739,102.606079 89.034599,105.306023 88.909882,108.916832 
	C88.960602,112.957283 89.011322,116.997742 89.002922,121.579346 
	C89.320358,121.650703 89.637794,121.722069 90.796921,121.925850 
	C92.213737,121.883438 93.630554,121.841026 95.444359,121.993904 
	C95.770927,122.036858 96.029869,121.924240 96.529411,121.523666 
M66.321815,18.831367 
	C66.879395,18.867493 67.436966,18.903616 68.592598,19.299141 
	C70.497696,19.973383 72.402794,20.647625 74.690262,21.751198 
	C75.054840,21.859165 75.419418,21.967133 75.989090,22.588610 
	C76.320480,22.698359 76.651871,22.808109 77.457024,23.259035 
	C77.971825,23.506563 78.486626,23.754089 79.303406,24.503868 
	C79.812874,24.780670 80.322350,25.057470 80.852936,25.195450 
	C80.852936,25.195450 80.722153,25.246565 81.027954,25.813564 
	C82.596344,27.237974 84.164726,28.662384 86.029167,30.722130 
	C88.407547,35.147381 90.785927,39.572636 93.136490,44.716026 
	C93.544350,46.741451 93.952209,48.766876 94.249367,51.640533 
	C93.842514,56.097057 93.435661,60.553577 92.659904,65.454773 
	C92.477859,65.968918 92.295815,66.483063 91.893265,67.426804 
	C91.893265,67.426804 91.769356,67.893517 91.171890,68.248489 
	C88.598801,76.252403 82.349106,81.101898 75.756638,85.633011 
	C79.269844,89.427132 82.285583,88.956482 85.625702,85.794952 
	C90.357262,81.316391 94.715225,76.689980 96.857193,69.851334 
	C97.866341,63.238731 98.875488,56.626129 100.019249,49.259567 
	C99.404732,47.482174 98.790215,45.704777 98.065636,43.458916 
	C98.065636,43.458916 97.970299,42.987225 98.253426,42.649685 
	C98.156654,42.105728 98.059883,41.561775 97.977936,40.282627 
	C95.712944,36.289314 93.447960,32.296001 90.697266,27.922001 
	C88.796379,25.953186 86.895493,23.984373 84.672348,21.426640 
	C82.123940,19.922764 79.575531,18.418888 76.584793,16.368856 
	C74.054237,15.595099 71.523682,14.821342 68.329117,13.715730 
	C67.603203,13.601264 66.877289,13.486799 65.501541,13.095278 
	C64.332680,13.077715 63.163826,13.060151 61.105549,12.856942 
	C55.852211,13.778269 50.598877,14.699595 44.671635,15.713475 
	C41.345631,17.760277 38.019630,19.807077 34.015778,21.906979 
	C31.297907,25.151117 28.580036,28.395256 25.286100,32.070141 
	C23.519783,36.713177 21.753466,41.356213 19.609304,46.733540 
	C19.320169,51.409363 19.031034,56.085186 18.717274,61.159275 
	C21.456177,60.685730 23.070736,60.406578 24.726784,60.120255 
	C24.726784,56.597496 24.726784,53.289452 24.960192,49.209496 
	C26.827530,44.186474 28.694868,39.163456 31.034040,33.726532 
	C34.034912,30.607405 37.035786,27.488277 40.628326,24.196547 
	C42.769997,22.848526 44.911667,21.500505 47.852711,20.058266 
	C53.240116,19.422876 58.627518,18.787487 64.558456,18.495682 
	C64.980942,18.518625 65.403419,18.541569 66.321815,18.831367 
M79.310989,53.063923 
	C78.166504,53.603565 77.022018,54.143208 75.166130,54.772888 
	C73.395882,55.819401 71.625633,56.865913 69.219284,58.134537 
	C68.411484,59.393887 67.603676,60.653233 66.074333,61.921360 
	C63.956894,63.522495 62.996227,65.383011 63.914387,67.832985 
	C63.255127,69.887360 62.595867,71.941727 61.680096,74.755173 
	C61.904121,78.462349 60.543293,82.424744 62.889900,86.634369 
	C64.439980,81.416710 65.689209,77.211693 67.298065,72.390816 
	C67.929977,70.951851 68.561890,69.512886 69.748703,67.919395 
	C70.586548,67.934807 71.424385,67.950211 72.182182,68.748833 
	C70.562027,72.659943 68.941872,76.571053 66.987244,81.289604 
	C73.639618,79.995850 78.527702,77.819962 82.511757,72.698143 
	C83.050560,71.814926 83.589363,70.931717 84.643570,69.738739 
	C84.856964,69.183479 85.070358,68.628227 85.764244,67.717155 
	C85.898369,67.143059 86.032486,66.568954 86.269691,65.843796 
	C86.269691,65.843796 86.181496,65.683571 86.682068,65.284691 
	C86.739075,64.871727 86.796082,64.458771 87.107796,63.548321 
	C87.099113,63.362221 87.090431,63.176125 87.503479,62.437958 
	C87.626022,61.301743 87.748566,60.165531 88.117683,58.290699 
	C88.134834,57.515793 88.151993,56.740883 88.475716,55.317146 
	C88.984879,53.098003 88.532326,51.622780 85.825989,52.040493 
	C83.865974,52.343018 81.919540,52.733559 79.310989,53.063923 
M55.914040,108.883972 
	C55.969109,111.258377 56.024178,113.632774 55.897392,116.886497 
	C55.897392,118.468933 55.897392,120.051376 55.897392,121.861816 
	C60.425014,121.861816 64.396255,122.049896 68.343758,121.823692 
	C77.299133,121.310547 82.336189,115.914589 82.897942,106.107063 
	C82.641197,104.391640 82.384453,102.676216 82.157944,100.225433 
	C79.836624,97.590919 77.515297,94.956413 74.651093,91.874527 
	C68.537613,91.166611 62.424133,90.458694 56.208420,89.738937 
	C56.208420,92.809616 56.208420,94.683441 56.208420,96.580780 
	C61.317989,96.838173 66.073929,97.077759 71.207527,97.821854 
	C72.470284,98.882416 73.733040,99.942978 75.055077,101.733994 
	C75.388702,103.157761 75.722328,104.581535 75.876976,106.748566 
	C74.326599,114.569588 70.653961,116.739517 62.125175,114.054901 
	C62.059608,112.041809 61.994041,110.028725 62.132519,107.161339 
	C62.049110,105.898903 61.965702,104.636475 61.881542,103.362617 
	C59.729664,103.362617 57.965324,103.362617 55.855293,103.362617 
	C55.938274,105.088951 56.008430,106.548477 55.914040,108.883972 
M49.421082,41.465961 
	C49.138382,42.596519 48.855682,43.727077 48.284443,45.412838 
	C48.510784,46.610626 48.737129,47.808411 48.982735,49.732334 
	C52.484035,57.235332 59.380924,59.160625 66.875793,54.232040 
	C67.963478,52.112293 69.051163,49.992542 70.557732,47.343899 
	C71.308319,41.626244 67.995872,37.937428 63.404507,36.221909 
	C60.682613,35.204899 57.055840,36.609688 53.227844,37.140884 
	C52.138901,38.430111 51.049957,39.719341 49.421082,41.465961 
M38.225780,74.640366 
	C42.130306,77.917419 46.165970,80.904732 52.957558,81.017746 
	C50.666504,77.469749 48.887798,74.715187 47.160759,71.291206 
	C46.125782,70.194260 45.090805,69.097305 44.132256,67.318230 
	C43.751286,66.525864 43.370316,65.733505 43.701572,64.959976 
	C46.012264,66.998512 48.322956,69.037048 50.852612,71.785187 
	C52.820168,76.494629 54.787724,81.204071 56.755280,85.913521 
	C57.226761,85.834908 57.698246,85.756302 58.169731,85.677696 
	C57.809875,80.789276 57.450020,75.900864 57.257881,70.257980 
	C56.406239,68.192368 55.554600,66.126762 54.563370,63.418358 
	C49.624382,56.100700 42.679226,52.506073 33.068428,52.121052 
	C28.087410,53.149227 31.467358,56.634720 30.956882,59.752026 
	C31.553511,61.827152 32.150139,63.902283 32.845375,66.698181 
	C34.546242,69.138962 36.247108,71.579735 38.225780,74.640366 
M25.203306,90.585030 
	C17.250566,92.412323 15.009437,94.901741 14.714312,102.890236 
	C14.702227,105.859428 14.589826,108.832306 14.699013,111.797035 
	C14.923916,117.903786 17.631006,120.771912 24.492434,122.055603 
	C24.660694,121.999290 24.828953,121.942970 25.823238,122.026108 
	C27.215357,121.979149 28.607473,121.932190 30.499821,122.055702 
	C30.665394,121.995544 30.830965,121.935394 31.926090,122.002808 
	C38.281311,121.936958 44.636532,121.871117 51.529964,121.918259 
	C51.627331,121.610451 51.724697,121.302650 51.990738,120.093681 
	C51.932930,116.738091 51.875122,113.382507 52.014153,109.148872 
	C52.014153,107.555084 52.014153,105.961296 52.014153,104.274391 
	C47.158398,104.274391 42.793655,104.274391 38.403526,104.274391 
	C38.403526,106.179390 38.403526,107.768867 38.403526,109.573082 
	C40.067669,109.736259 41.508335,109.877518 43.003799,110.928986 
	C43.301098,113.239395 42.809269,114.676758 39.951817,114.455261 
	C37.182819,114.240608 34.382675,114.451164 31.596579,114.428917 
	C25.088007,114.376953 24.052879,113.460014 23.339554,106.214165 
	C23.894545,99.013359 23.895817,99.091469 30.739151,98.980034 
	C37.049370,98.877296 43.358509,98.624199 49.662132,98.315109 
	C50.393913,98.279221 51.087444,97.463303 51.974628,96.145630 
	C51.974628,94.372505 51.974628,92.599373 51.974628,90.762321 
	C43.046570,90.762321 34.527554,90.762321 25.203306,90.585030 
M33.814156,85.886108 
	C37.035679,89.411682 40.032879,88.249870 43.109409,85.549942 
	C39.208546,82.535027 35.458862,79.636955 31.588741,76.645805 
	C30.306345,77.812920 29.111612,78.900261 27.571411,80.302010 
	C29.612108,82.138504 31.429817,83.774323 33.814156,85.886108 
z"/>
<path fill="#021D23" opacity="1.000000" stroke="none" 
	d="
M23.091511,106.992775 
	C24.052879,113.460014 25.088007,114.376953 31.596579,114.428917 
	C34.382675,114.451164 37.182819,114.240608 39.951817,114.455261 
	C42.809269,114.676758 43.301098,113.239395 43.317177,110.321838 
	C46.359470,109.818764 49.088394,109.922844 51.817314,110.026917 
	C51.875122,113.382507 51.932930,116.738091 51.717133,120.619980 
	C51.203960,121.304939 51.053371,121.524605 50.991753,121.805267 
	C44.636532,121.871117 38.281311,121.936958 31.369135,121.790092 
	C30.541317,121.679993 30.270454,121.782608 29.999592,121.885231 
	C28.607473,121.932190 27.215357,121.979149 25.321293,121.805923 
	C24.545479,121.676842 24.271610,121.767952 23.997742,121.859062 
	C17.631006,120.771912 14.923916,117.903786 14.699013,111.797035 
	C14.589826,108.832306 14.702227,105.859428 15.111923,102.621704 
	C18.036861,103.899704 20.564186,105.446243 23.091511,106.992775 
z"/>
<path fill="#166210" opacity="1.000000" stroke="none" 
	d="
M82.705124,106.730118 
	C82.336189,115.914589 77.299133,121.310547 68.343758,121.823692 
	C64.396255,122.049896 60.425014,121.861816 55.897392,121.861816 
	C55.897392,120.051376 55.897392,118.468933 56.392254,116.443985 
	C58.608673,115.639969 60.330231,115.278473 62.051788,114.916969 
	C70.653961,116.739517 74.326599,114.569588 76.383827,106.381538 
	C78.828827,106.253044 80.766975,106.491585 82.705124,106.730118 
z"/>
<path fill="#003239" opacity="1.000000" stroke="none" 
	d="
M26.008539,90.762321 
	C34.527554,90.762321 43.046570,90.762321 51.974628,90.762321 
	C51.974628,92.599373 51.974628,94.372505 51.431000,96.576706 
	C44.903141,97.003876 38.910900,96.808296 32.937244,97.057709 
	C28.293564,97.251587 26.171280,95.224556 26.008539,90.762321 
z"/>
<path fill="#02292F" opacity="1.000000" stroke="none" 
	d="
M25.605923,90.673676 
	C26.171280,95.224556 28.293564,97.251587 32.937244,97.057709 
	C38.910900,96.808296 44.903141,97.003876 51.343040,97.008400 
	C51.087444,97.463303 50.393913,98.279221 49.662132,98.315109 
	C43.358509,98.624199 37.049370,98.877296 30.739151,98.980034 
	C23.895817,99.091469 23.894545,99.013359 23.215532,106.603470 
	C20.564186,105.446243 18.036861,103.899704 15.225991,102.167923 
	C15.009437,94.901741 17.250566,92.412323 25.605923,90.673676 
z"/>
<path fill="#4A9618" opacity="1.000000" stroke="none" 
	d="
M31.045818,59.002941 
	C31.467358,56.634720 28.087410,53.149227 33.559288,52.539658 
	C36.328960,54.732002 38.402809,56.911011 40.931816,58.190041 
	C45.375397,60.437347 50.097504,62.133923 54.702957,64.061150 
	C55.554600,66.126762 56.406239,68.192368 56.714092,70.617798 
	C54.324753,71.010277 52.479202,71.042931 50.633652,71.075584 
	C48.322956,69.037048 46.012264,66.998512 43.164772,64.659416 
	C38.767250,62.573551 34.906536,60.788246 31.045818,59.002941 
z"/>
<path fill="#0C242E" opacity="1.000000" stroke="none" 
	d="
M96.170898,70.061325 
	C94.715225,76.689980 90.357262,81.316391 85.625702,85.794952 
	C82.285583,88.956482 79.269844,89.427132 75.756638,85.633011 
	C82.349106,81.101898 88.598801,76.252403 91.795708,68.219429 
	C93.669983,68.814026 94.920441,69.437675 96.170898,70.061325 
z"/>
<path fill="#0D4B15" opacity="1.000000" stroke="none" 
	d="
M66.236847,54.548882 
	C59.380924,59.160625 52.484035,57.235332 49.338505,49.322784 
	C52.836456,46.510090 55.976799,47.402210 59.239433,48.726360 
	C60.347343,49.176014 61.739941,48.924229 63.335358,48.998363 
	C64.112144,49.011784 64.556023,49.019814 65.195145,49.302200 
	C65.672539,51.233997 65.954689,52.891441 66.236847,54.548882 
z"/>
<path fill="#489820" opacity="1.000000" stroke="none" 
	d="
M70.829872,97.317337 
	C66.073929,97.077759 61.317989,96.838173 56.208420,96.580780 
	C56.208420,94.683441 56.208420,92.809616 56.208420,89.738937 
	C62.424133,90.458694 68.537613,91.166611 74.798691,92.465027 
	C73.574142,94.476135 72.202003,95.896736 70.829872,97.317337 
z"/>
<path fill="#033708" opacity="1.000000" stroke="none" 
	d="
M95.047371,121.798615 
	C93.630554,121.841026 92.213737,121.883438 90.284050,121.676590 
	C89.580200,121.214912 89.343819,121.085197 89.062042,121.038193 
	C89.011322,116.997742 88.960602,112.957283 89.395126,108.459946 
	C92.132706,107.672058 94.385048,107.341072 96.637390,107.010086 
	C96.702278,111.046944 96.767166,115.083817 96.596283,119.746384 
	C96.211365,120.720749 96.296982,120.996712 96.617363,121.199959 
	C96.617363,121.199959 96.529411,121.523666 96.186478,121.446991 
	C95.487923,121.345062 95.222527,121.487823 95.047371,121.798615 
z"/>
<path fill="#062B34" opacity="1.000000" stroke="none" 
	d="
M96.514046,69.956329 
	C94.920441,69.437675 93.669983,68.814026 92.094437,68.041946 
	C91.769356,67.893517 91.893265,67.426804 92.285553,67.177505 
	C92.794823,66.288841 92.911819,65.649467 93.028809,65.010101 
	C93.435661,60.553577 93.842514,56.097057 94.711525,51.272392 
	C96.743996,50.607346 98.314316,50.310432 99.884628,50.013523 
	C98.875488,56.626129 97.866341,63.238731 96.514046,69.956329 
z"/>
<path fill="#05343A" opacity="1.000000" stroke="none" 
	d="
M30.562206,34.140434 
	C28.694868,39.163456 26.827530,44.186474 24.541941,49.660629 
	C23.173891,50.660252 22.224092,51.208733 21.211428,51.793518 
	C20.723022,49.481991 20.355087,47.740620 19.987152,45.999252 
	C21.753466,41.356213 23.519783,36.713177 25.745628,32.224930 
	C27.657505,32.966621 29.109856,33.553528 30.562206,34.140434 
z"/>
<path fill="#ABDE2E" opacity="1.000000" stroke="none" 
	d="
M53.835941,36.925537 
	C57.055840,36.609688 60.682613,35.204899 63.404507,36.221909 
	C67.995872,37.937428 71.308319,41.626244 69.968979,47.571098 
	C68.372025,47.735977 67.363831,47.673653 66.095154,47.402298 
	C63.905838,45.790012 61.976997,44.386757 60.062759,42.607689 
	C57.996887,40.463100 55.916412,38.694317 53.835941,36.925537 
M64.889915,43.853561 
	C65.554947,42.930737 66.897789,41.303757 66.781898,41.192200 
	C65.362457,39.825863 63.729244,38.681618 62.151367,37.479881 
	C61.655033,38.015354 61.158699,38.550831 60.662365,39.086308 
	C61.833416,40.577747 63.004463,42.069187 64.889915,43.853561 
z"/>
<path fill="#76B91F" opacity="1.000000" stroke="none" 
	d="
M54.633163,63.739754 
	C50.097504,62.133923 45.375397,60.437347 40.931816,58.190041 
	C38.402809,56.911011 36.328960,54.732002 33.981606,52.624565 
	C42.679226,52.506073 49.624382,56.100700 54.633163,63.739754 
z"/>
<path fill="#185A20" opacity="1.000000" stroke="none" 
	d="
M81.950722,72.995552 
	C78.527702,77.819962 73.639618,79.995850 66.987244,81.289604 
	C68.941872,76.571053 70.562027,72.659943 72.433380,68.406082 
	C72.684570,68.063332 73.117950,68.052742 73.357727,68.291695 
	C74.649284,73.260460 78.252220,73.217400 81.950722,72.995552 
z"/>
<path fill="#074345" opacity="1.000000" stroke="none" 
	d="
M97.970299,42.987225 
	C97.970299,42.987225 98.065636,43.458916 97.812515,43.819401 
	C96.094368,44.119221 94.629341,44.058552 93.164307,43.997887 
	C90.785927,39.572636 88.407547,35.147381 86.329147,30.377104 
	C88.147079,29.455616 89.665031,28.879152 91.182968,28.302691 
	C93.447960,32.296001 95.712944,36.289314 97.752792,40.795471 
	C97.675201,41.867950 97.822746,42.427586 97.970299,42.987225 
z"/>
<path fill="#115859" opacity="1.000000" stroke="none" 
	d="
M64.014923,18.152098 
	C58.627518,18.787487 53.240116,19.422876 47.437492,19.670815 
	C46.463364,18.062551 45.904449,16.841736 45.345539,15.620922 
	C50.598877,14.699595 55.852211,13.778269 61.592346,13.297220 
	C62.724403,15.209032 63.369663,16.680565 64.014923,18.152098 
z"/>
<path fill="#102329" opacity="1.000000" stroke="none" 
	d="
M33.530842,85.648125 
	C31.429817,83.774323 29.612108,82.138504 27.571411,80.302010 
	C29.111612,78.900261 30.306345,77.812920 31.588741,76.645805 
	C35.458862,79.636955 39.208546,82.535027 43.109409,85.549942 
	C40.032879,88.249870 37.035679,89.411682 33.530842,85.648125 
z"/>
<path fill="#0E464B" opacity="1.000000" stroke="none" 
	d="
M30.798122,33.933483 
	C29.109856,33.553528 27.657505,32.966621 26.033661,32.009556 
	C28.580036,28.395256 31.297907,25.151117 34.738235,22.048038 
	C36.986015,22.915781 38.511333,23.642466 40.036655,24.369150 
	C37.035786,27.488277 34.034912,30.607405 30.798122,33.933483 
z"/>
<path fill="#1C383D" opacity="1.000000" stroke="none" 
	d="
M51.915733,109.587891 
	C49.088394,109.922844 46.359470,109.818764 43.289772,109.866730 
	C41.508335,109.877518 40.067669,109.736259 38.403526,109.573082 
	C38.403526,107.768867 38.403526,106.179390 38.403526,104.274391 
	C42.793655,104.274391 47.158398,104.274391 52.014153,104.274391 
	C52.014153,105.961296 52.014153,107.555084 51.915733,109.587891 
z"/>
<path fill="#368519" opacity="1.000000" stroke="none" 
	d="
M73.117950,68.052742 
	C73.117950,68.052742 72.684570,68.063332 72.473404,68.014481 
	C71.424385,67.950211 70.586548,67.934807 69.027008,67.967072 
	C67.118469,67.960167 65.931618,67.905579 64.744766,67.850990 
	C62.996227,65.383011 63.956894,63.522495 66.846138,61.947876 
	C70.720612,62.669289 73.823288,63.364189 77.097015,64.375702 
	C79.939972,65.819199 82.611862,66.946083 85.283752,68.072968 
	C85.070358,68.628227 84.856964,69.183479 83.980408,69.877502 
	C81.215263,69.330002 79.146034,68.498871 76.998650,68.013443 
	C75.770790,67.735886 74.415733,68.020981 73.117950,68.052742 
z"/>
<path fill="#246720" opacity="1.000000" stroke="none" 
	d="
M89.062073,99.017456 
	C89.062073,96.376671 89.062073,93.735893 89.062073,90.765381 
	C91.511742,90.765381 93.910339,90.765381 96.885826,90.765381 
	C96.885826,93.296326 96.885826,95.730309 96.427589,98.610733 
	C93.666924,99.043930 91.364502,99.030693 89.062073,99.017456 
z"/>
<path fill="#0D5118" opacity="1.000000" stroke="none" 
	d="
M44.055832,68.000359 
	C45.090805,69.097305 46.125782,70.194260 46.778217,71.776077 
	C43.579773,72.847466 40.763874,73.433990 37.947971,74.020515 
	C36.247108,71.579735 34.546242,69.138962 33.234592,66.338913 
	C37.101151,66.653221 40.578491,67.326790 44.055832,68.000359 
z"/>
<path fill="#0F451D" opacity="1.000000" stroke="none" 
	d="
M38.086876,74.330444 
	C40.763874,73.433990 43.579773,72.847466 46.752380,72.110779 
	C48.887798,74.715187 50.666504,77.469749 52.957558,81.017746 
	C46.165970,80.904732 42.130306,77.917419 38.086876,74.330444 
z"/>
<path fill="#1A393F" opacity="1.000000" stroke="none" 
	d="
M19.798229,46.366394 
	C20.355087,47.740620 20.723022,49.481991 21.211428,51.793518 
	C22.224092,51.208733 23.173891,50.660252 24.425236,50.046585 
	C24.726784,53.289452 24.726784,56.597496 24.726784,60.120255 
	C23.070736,60.406578 21.456177,60.685730 18.717274,61.159275 
	C19.031034,56.085186 19.320169,51.409363 19.798229,46.366394 
z"/>
<path fill="#054A09" opacity="1.000000" stroke="none" 
	d="
M88.989471,99.461792 
	C91.364502,99.030693 93.666924,99.043930 96.320984,99.048897 
	C96.726494,101.407913 96.780373,103.775192 96.735825,106.576279 
	C94.385048,107.341072 92.132706,107.672058 89.486908,108.004509 
	C89.034599,105.306023 88.975739,102.606079 88.989471,99.461792 
z"/>
<path fill="#50A012" opacity="1.000000" stroke="none" 
	d="
M76.925957,64.059090 
	C73.823288,63.364189 70.720612,62.669289 67.206909,61.943481 
	C67.603676,60.653233 68.411484,59.393887 69.888367,58.183910 
	C76.065552,59.818867 81.573654,61.404446 87.081749,62.990028 
	C87.090431,63.176125 87.099113,63.362221 86.761627,64.014755 
	C86.337463,64.881989 86.259476,65.282776 86.181496,65.683571 
	C86.181496,65.683571 86.269691,65.843796 85.831818,65.915878 
	C83.796936,65.353104 82.240685,64.557732 80.588974,64.138306 
	C79.435631,63.845417 78.151611,64.067192 76.925957,64.059090 
z"/>
<path fill="#216C17" opacity="1.000000" stroke="none" 
	d="
M44.094044,67.659294 
	C40.578491,67.326790 37.101151,66.653221 33.185287,65.978531 
	C32.150139,63.902283 31.553511,61.827152 31.001350,59.377483 
	C34.906536,60.788246 38.767250,62.573551 42.808655,64.649994 
	C43.370316,65.733505 43.751286,66.525864 44.094044,67.659294 
z"/>
<path fill="#68B415" opacity="1.000000" stroke="none" 
	d="
M87.292618,62.713993 
	C81.573654,61.404446 76.065552,59.818867 70.206421,58.072853 
	C71.625633,56.865913 73.395882,55.819401 75.595642,55.111504 
	C79.973808,56.643185 83.922462,57.836250 87.871109,59.029316 
	C87.748566,60.165531 87.626022,61.301743 87.292618,62.713993 
z"/>
<path fill="#105255" opacity="1.000000" stroke="none" 
	d="
M40.332489,24.282848 
	C38.511333,23.642466 36.986015,22.915781 35.077160,22.021488 
	C38.019630,19.807077 41.345631,17.760277 45.008587,15.667198 
	C45.904449,16.841736 46.463364,18.062551 47.037807,19.717926 
	C44.911667,21.500505 42.769997,22.848526 40.332489,24.282848 
z"/>
<path fill="#1F5D17" opacity="1.000000" stroke="none" 
	d="
M50.743134,71.430389 
	C52.479202,71.042931 54.324753,71.010277 56.630234,70.995041 
	C57.450020,75.900864 57.809875,80.789276 58.169731,85.677696 
	C57.698246,85.756302 57.226761,85.834908 56.755280,85.913521 
	C54.787724,81.204071 52.820168,76.494629 50.743134,71.430389 
z"/>
<path fill="#308412" opacity="1.000000" stroke="none" 
	d="
M71.018700,97.569595 
	C72.202003,95.896736 73.574142,94.476135 75.070129,92.688721 
	C77.515297,94.956413 79.836624,97.590919 81.696274,100.602898 
	C79.154991,100.988091 77.075394,100.995819 74.995789,101.003548 
	C73.733040,99.942978 72.470284,98.882416 71.018700,97.569595 
z"/>
<path fill="#3B831A" opacity="1.000000" stroke="none" 
	d="
M60.048157,42.983501 
	C61.976997,44.386757 63.905838,45.790012 65.825867,47.600723 
	C65.544670,48.348072 65.272278,48.687958 64.999893,49.027847 
	C64.556023,49.019814 64.112144,49.011784 63.137482,48.720436 
	C58.380005,45.474937 54.161625,42.480171 48.572987,44.857635 
	C48.855682,43.727077 49.138382,42.596519 50.119354,41.240074 
	C53.894466,41.670624 56.971313,42.327065 60.048157,42.983501 
z"/>
<path fill="#1F7207" opacity="1.000000" stroke="none" 
	d="
M62.088482,114.485931 
	C60.330231,115.278473 58.608673,115.639969 56.483181,116.004318 
	C56.024178,113.632774 55.969109,111.258377 56.413994,108.440811 
	C58.585457,108.003647 60.256966,108.009644 61.928474,108.015633 
	C61.994041,110.028725 62.059608,112.041809 62.088482,114.485931 
z"/>
<path fill="#12575A" opacity="1.000000" stroke="none" 
	d="
M77.027122,16.915012 
	C79.575531,18.418888 82.123940,19.922764 84.685883,22.047565 
	C83.373657,23.527847 82.047905,24.387205 80.722153,25.246563 
	C80.722153,25.246565 80.852936,25.195450 80.758240,24.959866 
	C80.109512,24.483393 79.555466,24.242504 79.001427,24.001614 
	C78.486626,23.754089 77.971825,23.506563 77.077972,22.876614 
	C76.393944,22.354492 76.088966,22.214796 75.783997,22.075100 
	C75.419418,21.967133 75.054840,21.859165 74.850075,21.365990 
	C75.682297,19.625525 76.354713,18.270267 77.027122,16.915012 
z"/>
<path fill="#1E6819" opacity="1.000000" stroke="none" 
	d="
M48.428715,45.135239 
	C54.161625,42.480171 58.380005,45.474937 62.804569,48.715050 
	C61.739941,48.924229 60.347343,49.176014 59.239433,48.726360 
	C55.976799,47.402210 52.836456,46.510090 49.328873,48.959717 
	C48.737129,47.808411 48.510784,46.610626 48.428715,45.135239 
z"/>
<path fill="#0C410F" opacity="1.000000" stroke="none" 
	d="
M66.938446,73.006683 
	C65.689209,77.211693 64.439980,81.416710 62.889900,86.634369 
	C60.543293,82.424744 61.904121,78.462349 62.177876,74.369598 
	C64.096588,73.658241 65.517517,73.332458 66.938446,73.006683 
z"/>
<path fill="#1B6465" opacity="1.000000" stroke="none" 
	d="
M76.805954,16.641933 
	C76.354713,18.270267 75.682297,19.625525 74.658890,21.151323 
	C72.402794,20.647625 70.497696,19.973383 68.337830,18.762573 
	C68.386414,16.833199 68.689766,15.440392 68.993118,14.047586 
	C71.523682,14.821342 74.054237,15.595099 76.805954,16.641933 
z"/>
<path fill="#0F5153" opacity="1.000000" stroke="none" 
	d="
M80.875053,25.530064 
	C82.047905,24.387205 83.373657,23.527847 84.847008,22.342026 
	C86.895493,23.984373 88.796379,25.953186 90.940125,28.112347 
	C89.665031,28.879152 88.147079,29.455616 86.181122,30.059437 
	C84.164726,28.662384 82.596344,27.237974 80.875053,25.530064 
z"/>
<path fill="#80C71A" opacity="1.000000" stroke="none" 
	d="
M87.994400,58.660007 
	C83.922462,57.836250 79.973808,56.643185 75.951347,55.066483 
	C77.022018,54.143208 78.166504,53.603565 79.728951,53.428017 
	C82.820992,54.516735 85.495064,55.241356 88.169144,55.965977 
	C88.151993,56.740883 88.134834,57.515793 87.994400,58.660007 
z"/>
<path fill="#287818" opacity="1.000000" stroke="none" 
	d="
M75.025436,101.368774 
	C77.075394,100.995819 79.154991,100.988091 81.681152,100.970581 
	C82.384453,102.676216 82.641197,104.391640 82.801529,106.418594 
	C80.766975,106.491585 78.828827,106.253044 76.473312,106.009903 
	C75.722328,104.581535 75.388702,103.157761 75.025436,101.368774 
z"/>
<path fill="#103E44" opacity="1.000000" stroke="none" 
	d="
M93.150398,44.356956 
	C94.629341,44.058552 96.094368,44.119221 97.867554,44.053635 
	C98.790215,45.704777 99.404732,47.482174 99.951935,49.636543 
	C98.314316,50.310432 96.743996,50.607346 94.766876,50.848274 
	C93.952209,48.766876 93.544350,46.741451 93.150398,44.356956 
z"/>
<path fill="#287415" opacity="1.000000" stroke="none" 
	d="
M73.357727,68.291695 
	C74.415733,68.020981 75.770790,67.735886 76.998650,68.013443 
	C79.146034,68.498871 81.215263,69.330002 83.722710,70.032379 
	C83.589363,70.931717 83.050560,71.814926 82.231239,72.846848 
	C78.252220,73.217400 74.649284,73.260460 73.357727,68.291695 
z"/>
<path fill="#135C12" opacity="1.000000" stroke="none" 
	d="
M67.118256,72.698746 
	C65.517517,73.332458 64.096588,73.658241 62.306129,73.990059 
	C62.595867,71.941727 63.255127,69.887360 64.329575,67.841988 
	C65.931618,67.905579 67.118469,67.960167 68.749557,68.044342 
	C68.561890,69.512886 67.929977,70.951851 67.118256,72.698746 
z"/>
<path fill="#5EA319" opacity="1.000000" stroke="none" 
	d="
M60.062759,42.607689 
	C56.971313,42.327065 53.894466,41.670624 50.389320,41.011379 
	C51.049957,39.719341 52.138901,38.430111 53.531891,37.033211 
	C55.916412,38.694317 57.996887,40.463100 60.062759,42.607689 
z"/>
<path fill="#9ED833" opacity="1.000000" stroke="none" 
	d="
M88.322433,55.641563 
	C85.495064,55.241356 82.820992,54.516735 80.056984,53.438480 
	C81.919540,52.733559 83.865974,52.343018 85.825989,52.040493 
	C88.532326,51.622780 88.984879,53.098003 88.322433,55.641563 
z"/>
<path fill="#328110" opacity="1.000000" stroke="none" 
	d="
M62.030495,107.588486 
	C60.256966,108.009644 58.585457,108.003647 56.496269,108.002823 
	C56.008430,106.548477 55.938274,105.088951 55.855293,103.362617 
	C57.965324,103.362617 59.729664,103.362617 61.881542,103.362617 
	C61.965702,104.636475 62.049110,105.898903 62.030495,107.588486 
z"/>
<path fill="#4B9519" opacity="1.000000" stroke="none" 
	d="
M77.097015,64.375702 
	C78.151611,64.067192 79.435631,63.845417 80.588974,64.138306 
	C82.240685,64.557732 83.796936,65.353104 85.780273,65.991409 
	C86.032486,66.568954 85.898369,67.143059 85.524002,67.895065 
	C82.611862,66.946083 79.939972,65.819199 77.097015,64.375702 
z"/>
<path fill="#1E6819" opacity="1.000000" stroke="none" 
	d="
M65.195145,49.302200 
	C65.272278,48.687958 65.544670,48.348072 66.086349,47.809753 
	C67.363831,47.673653 68.372025,47.735977 69.759537,47.835548 
	C69.051163,49.992542 67.963478,52.112293 66.556320,54.390461 
	C65.954689,52.891441 65.672539,51.233997 65.195145,49.302200 
z"/>
<path fill="#1B6465" opacity="1.000000" stroke="none" 
	d="
M64.286690,18.323891 
	C63.369663,16.680565 62.724403,15.209032 62.037056,13.390043 
	C63.163826,13.060151 64.332680,13.077715 65.784668,13.752497 
	C65.987160,15.794647 65.906532,17.179581 65.825905,18.564512 
	C65.403419,18.541569 64.980942,18.518625 64.286690,18.323891 
z"/>
<path fill="#115859" opacity="1.000000" stroke="none" 
	d="
M66.073860,18.697941 
	C65.906532,17.179581 65.987160,15.794647 66.109581,13.891024 
	C66.877289,13.486799 67.603203,13.601264 68.661118,13.881659 
	C68.689766,15.440392 68.386414,16.833199 68.038803,18.582870 
	C67.436966,18.903616 66.879395,18.867493 66.073860,18.697941 
z"/>
<path fill="#0C242E" opacity="1.000000" stroke="none" 
	d="
M92.844360,65.232437 
	C92.911819,65.649467 92.794823,66.288841 92.395805,66.962708 
	C92.295815,66.483063 92.477859,65.968918 92.844360,65.232437 
z"/>
<path fill="#103E44" opacity="1.000000" stroke="none" 
	d="
M98.111862,42.818455 
	C97.822746,42.427586 97.675201,41.867950 97.745377,41.163063 
	C98.059883,41.561775 98.156654,42.105728 98.111862,42.818455 
z"/>
<path fill="#0F5153" opacity="1.000000" stroke="none" 
	d="
M79.152420,24.252741 
	C79.555466,24.242504 80.109512,24.483393 80.747681,25.029276 
	C80.322350,25.057470 79.812874,24.780670 79.152420,24.252741 
z"/>
<path fill="#4B9519" opacity="1.000000" stroke="none" 
	d="
M86.431778,65.484131 
	C86.259476,65.282776 86.337463,64.881989 86.634270,64.263504 
	C86.796082,64.458771 86.739075,64.871727 86.431778,65.484131 
z"/>
<path fill="#0F5153" opacity="1.000000" stroke="none" 
	d="
M75.886543,22.331856 
	C76.088966,22.214796 76.393944,22.354492 76.841087,22.706024 
	C76.651871,22.808109 76.320480,22.698359 75.886543,22.331856 
z"/>
<path fill="#246720" opacity="1.000000" stroke="none" 
	d="
M96.745483,121.026627 
	C96.296982,120.996712 96.211365,120.720749 96.529694,120.208244 
	C96.913712,120.280235 96.971954,120.549866 96.745483,121.026627 
z"/>
<path fill="#1C383D" opacity="1.000000" stroke="none" 
	d="
M24.245087,121.957336 
	C24.271610,121.767952 24.545479,121.676842 24.908279,121.736191 
	C24.828953,121.942970 24.660694,121.999290 24.245087,121.957336 
z"/>
<path fill="#1C383D" opacity="1.000000" stroke="none" 
	d="
M30.249706,121.970467 
	C30.270454,121.782608 30.541317,121.679993 30.904358,121.726311 
	C30.830965,121.935394 30.665394,121.995544 30.249706,121.970467 
z"/>
<path fill="#1C383D" opacity="1.000000" stroke="none" 
	d="
M51.260857,121.861763 
	C51.053371,121.524605 51.203960,121.304939 51.632797,121.070564 
	C51.724697,121.302650 51.627331,121.610451 51.260857,121.861763 
z"/>
<path fill="#246720" opacity="1.000000" stroke="none" 
	d="
M89.032486,121.308769 
	C89.343819,121.085197 89.580200,121.214912 89.863205,121.610374 
	C89.637794,121.722069 89.320358,121.650703 89.032486,121.308769 
z"/>
<path fill="#246720" opacity="1.000000" stroke="none" 
	d="
M95.245865,121.896255 
	C95.222527,121.487823 95.487923,121.345062 96.032372,121.513191 
	C96.029869,121.924240 95.770927,122.036858 95.245865,121.896255 
z"/>
<path fill="#F9FDE9" opacity="1.000000" stroke="none" 
	d="
M64.532715,43.707092 
	C63.004463,42.069187 61.833416,40.577747 60.662365,39.086308 
	C61.158699,38.550831 61.655033,38.015354 62.151367,37.479881 
	C63.729244,38.681618 65.362457,39.825863 66.781898,41.192200 
	C66.897789,41.303757 65.554947,42.930737 64.532715,43.707092 
z"/>
</svg>